<svg aria-hidden="true" style="position: absolute; width: 0; height: 0; overflow: hidden;"
    version="1.1"
    xmlns="http://www.w3.org/2000/svg"
    xmlns:xlink="http://www.w3.org/1999/xlink">
    <defs>
        <symbol id="icon-arrow-left" viewBox="0 0 32 32">
            <path
                d="M22.547 31.953l-15.969-15.953 15.969-15.953 1.406 1.406-14.531 14.547 14.531 14.547-1.406 1.406z"></path>
        </symbol>
        <symbol id="icon-arrow-right" viewBox="0 0 32 32">
            <path
                d="M8.047 30.547l14.531-14.547-14.531-14.547 1.406-1.406 15.969 15.953-15.969 15.953-1.406-1.406z"></path>
        </symbol>
        <symbol id="icon-arrow-up" viewBox="0 0 32 32">
            <path
                d="M30.547 23.953l-14.547-14.531-14.547 14.531-1.406-1.406 15.953-15.969 15.953 15.969-1.406 1.406z"></path>
        </symbol>
        <symbol id="icon-arrow-down" viewBox="0 0 32 32">
            <path
                d="M30.297 7.297l1.406 1.406-15.703 15.703-15.703-15.703 1.406-1.406 14.297 14.297 14.297-14.297z"></path>
        </symbol>
        <symbol id="icon-close" viewBox="0 0 32 32">
            <path
                d="M17.422 16l10.781 10.797-1.406 1.406-10.797-10.781-10.797 10.781-1.406-1.406 10.781-10.797-10.781-10.797 1.406-1.406 10.797 10.781 10.797-10.781 1.406 1.406-10.781 10.797z"></path>
        </symbol>
        <symbol id="icon-plus" viewBox="0 0 32 32">
            <path d="M30 14v2h-14v14h-2v-14h-14v-2h14v-14h2v14h14z"></path>
        </symbol>
        <symbol id="icon-minus" viewBox="0 0 32 32">
            <path d="M0 14h30v2h-30v-2z"></path>
        </symbol>
        <symbol id="icon-help" viewBox="0 0 32 32">
            <path
                d="M15 0.063q2.063 0 3.969 0.531t3.563 1.5 3.031 2.344 2.328 3.016 1.516 3.578 0.531 3.969q0 2.063-0.531 3.969t-1.5 3.563-2.344 3.031-3.016 2.328-3.578 1.516-3.969 0.531q-2.063 0-3.969-0.531t-3.563-1.5-3.031-2.344-2.328-3.016-1.516-3.578-0.531-3.969q0-2.063 0.531-3.969t1.5-3.563 2.344-3.031 3.016-2.328 3.578-1.516 3.969-0.531zM15 28.063q1.797 0 3.469-0.469t3.125-1.313 2.641-2.047 2.031-2.641 1.328-3.125 0.469-3.469q0-1.797-0.469-3.469t-1.313-3.125-2.047-2.641-2.641-2.031-3.125-1.328-3.469-0.469q-1.797 0-3.469 0.469t-3.125 1.313-2.641 2.047-2.031 2.641-1.328 3.125-0.469 3.469q0 1.797 0.469 3.469t1.313 3.125 2.047 2.641 2.641 2.031 3.125 1.328 3.469 0.469zM14 22h2v2h-2v-2zM15 7q1.031 0 1.938 0.391t1.578 1.078 1.078 1.594 0.406 1.938q0 0.938-0.297 1.625t-0.734 1.266-0.969 1.016-0.953 0.922-0.75 0.984-0.297 1.188v1h-2v-1q0-0.938 0.297-1.625t0.734-1.266 0.969-1.016 0.953-0.922 0.75-0.984 0.297-1.188q0-0.625-0.234-1.172t-0.641-0.953-0.953-0.641-1.172-0.234-1.172 0.234-0.953 0.641-0.641 0.953-0.234 1.172h-2q0-1.031 0.391-1.938t1.063-1.578 1.594-1.078 1.953-0.406z"></path>
        </symbol>
        <symbol id="icon-smile" viewBox="0 0 32 32">
            <path
                d="M16 0q2.203 0 4.25 0.563t3.813 1.625 3.234 2.5 2.516 3.234 1.609 3.828 0.578 4.25q0 2.203-0.563 4.25t-1.625 3.813-2.5 3.234-3.234 2.516-3.828 1.609-4.25 0.578q-2.203 0-4.25-0.563t-3.813-1.625-3.234-2.5-2.516-3.234-1.609-3.828-0.578-4.25q0-2.203 0.563-4.25t1.625-3.813 2.5-3.234 3.234-2.516 3.828-1.609 4.25-0.578zM16 30q1.938 0 3.719-0.5t3.344-1.406 2.828-2.188 2.188-2.828 1.422-3.344 0.5-3.734-0.5-3.719-1.406-3.344-2.188-2.828-2.828-2.188-3.344-1.422-3.734-0.5-3.719 0.5-3.344 1.406-2.828 2.188-2.188 2.828-1.422 3.344-0.5 3.734 0.5 3.719 1.406 3.344 2.188 2.828 2.828 2.188 3.344 1.422 3.734 0.5zM16 27q-1.656 0-3.109-0.625t-2.547-1.703-1.719-2.547-0.625-3.125h16q0 1.656-0.625 3.109t-1.703 2.547-2.547 1.719-3.125 0.625zM16 25q0.953 0 1.828-0.281t1.625-0.813 1.313-1.266 0.891-1.641h-11.313q0.328 0.906 0.891 1.641t1.297 1.25 1.625 0.813 1.844 0.297zM21.5 16q-0.625 0-1.063-0.438t-0.438-1.063v-4q0-0.625 0.438-1.063t1.063-0.438q0.297 0 0.563 0.109t0.469 0.313 0.344 0.469 0.125 0.563v4.078q0 0.313-0.125 0.578t-0.328 0.453-0.469 0.313-0.578 0.125zM10.5 16q-0.625 0-1.063-0.438t-0.438-1.063v-4q0-0.625 0.438-1.063t1.063-0.438q0.297 0 0.563 0.109t0.469 0.313 0.344 0.469 0.125 0.563v4.078q0 0.313-0.125 0.578t-0.328 0.453-0.469 0.313-0.578 0.125z"></path>
        </symbol>
        <symbol id="icon-layers" viewBox="0 0 32 32">
            <path
                d="M32 17l-6.125 3.063 6.125 3.063-16 8-16-8 6.125-3.063-6.125-3.063 6-3-6-3 16-8 16 8-6 3 6 3zM4.469 11q2.906 1.453 5.766 2.875t5.766 2.891q2.891-1.469 5.75-2.891t5.781-2.875l-11.531-5.766-11.531 5.766zM23.641 21.172l-7.641 3.828-7.641-3.828-3.891 1.953 11.531 5.766 11.531-5.766-3.891-1.953zM16 22.766q2.906-1.453 5.766-2.891t5.766-2.875l-3.766-1.891q-1.953 0.984-3.875 1.938t-3.891 1.953q-1.953-0.984-3.875-1.938t-3.891-1.953l-3.766 1.891q2.906 1.438 5.766 2.875t5.766 2.891z"></path>
        </symbol>
        <symbol id="icon-pyramic" viewBox="0 0 32 32">
            <path
                d="M30 24l-15 5-15-5 15-21 15 21zM16 26.563l10.797-3.609-10.797-15.109v18.719zM3.203 22.953l10.797 3.609v-18.719l-10.797 15.109z"></path>
        </symbol>
        <symbol id="icon-cube" viewBox="0 0 32 32">
            <path
                d="M28 8.891v16.219l-13 6.516-13-6.516v-16.219l13-6.516 13 6.516zM15 4.625l-9.766 4.875 9.766 4.875 9.766-4.875-9.766-4.875zM4 23.875l10 5.016v-12.766l-10-5.016v12.766zM26 23.875v-12.766l-10 5.016v12.766l10-5.016z"></path>
        </symbol>
        <symbol id="icon-dblpyramid" viewBox="0 0 32 32">
            <path
                d="M30 17l-13 15-13-15 13-17 13 17zM18 18.953l8.75-2.922-8.75-11.422v14.344zM16 4.609l-8.75 11.422 8.75 2.922v-14.344zM7.781 18.313l8.219 9.484v-6.75l-8.219-2.734zM18 27.797l8.219-9.484-8.219 2.734v6.75z"></path>
        </symbol>
        <symbol id="icon-ninjacat" viewBox="0 0 32 32">
            <path
                d="M10 13q0.531 0 0.906 0.297t0.609 0.766 0.359 0.984 0.125 0.953q0 0.422-0.109 0.938t-0.359 0.984-0.625 0.766-0.906 0.313q-0.531 0-0.906-0.297t-0.609-0.766-0.359-0.984-0.125-0.953q0-0.422 0.109-0.938t0.359-0.984 0.625-0.766 0.906-0.313zM22 13q0.531 0 0.906 0.297t0.609 0.766 0.359 0.984 0.125 0.953q0 0.422-0.109 0.938t-0.359 0.984-0.625 0.766-0.906 0.313q-0.531 0-0.906-0.297t-0.609-0.766-0.359-0.984-0.125-0.953q0-0.422 0.109-0.938t0.359-0.984 0.625-0.766 0.906-0.313zM32 19.594v0.406q0 1.641-0.422 3.172t-1.219 2.859-1.891 2.438-2.422 1.891-2.875 1.203-3.172 0.438q-1.125 0-2.141-0.391t-1.859-1.156q-0.828 0.75-1.844 1.141t-2.156 0.406q-1.641 0-3.172-0.422t-2.859-1.219-2.438-1.891-1.891-2.422-1.203-2.859-0.438-3.188v-0.406l2-2v-5.594q-0.406 0-0.703-0.297t-0.297-0.703 0.297-0.703 0.703-0.297v-6.875q0-0.656 0.25-1.219t0.672-1 0.984-0.656 1.234-0.25q0.609 0 1.172 0.234t1.016 0.688l5.078 5.078h7.188l5.078-5.078q0.438-0.438 1-0.672t1.188-0.25q0.656 0 1.219 0.234t1 0.672 0.672 1 0.25 1.234v5.453q0.203-0.219 0.438-0.406t0.563-0.188q0.406 0 0.688 0.297t0.297 0.703q0 0.422-0.297 0.719l-1.469 1.484q0.078 0.156 0.234 0.453t0.359 0.688 0.406 0.797 0.375 0.797 0.281 0.656 0.109 0.422q0 0.422-0.281 0.703t-0.719 0.281q-0.406 0-0.625-0.219t-0.359-0.547v2.359l2 2zM4 10h24v-6.859q0-0.484-0.328-0.813t-0.813-0.328q-0.219 0-0.422 0.094t-0.359 0.25l-5.672 5.656h-8.813l-5.688-5.672q-0.328-0.328-0.766-0.328-0.469 0-0.797 0.313t-0.344 0.813v6.875zM20 30q0.828 0 1.547-0.313t1.281-0.859 0.859-1.266 0.313-1.563q0-0.828-0.313-1.547t-0.859-1.281-1.266-0.859-1.563-0.313h-2l-2 2-2-2h-2q-0.828 0-1.547 0.313t-1.281 0.859-0.859 1.266-0.313 1.563q0 0.828 0.313 1.547t0.859 1.281 1.266 0.859 1.563 0.313q0.766 0 1.328-0.203t1.031-0.578 0.844-0.844 0.797-1.063q0.406 0.563 0.797 1.047t0.844 0.859 1.016 0.563 1.344 0.219zM25.531 28.328q1-0.672 1.797-1.531t1.375-1.891 0.906-2.156 0.375-2.344l-1.984-1.984v-6.422h-24v6.422l-1.984 1.984q0.047 1.203 0.375 2.328t0.891 2.156 1.375 1.891 1.813 1.547q-0.469-1.094-0.469-2.328t0.469-2.328 1.297-1.906 1.906-1.281 2.328-0.484h8q1.234 0 2.328 0.469t1.906 1.297 1.281 1.906 0.484 2.328q0 1.234-0.469 2.328z"></path>
        </symbol>
        <symbol id="icon-close" viewBox="0 0 32 32">
            <path
                d="M17.422 16l10.781 10.797-1.406 1.406-10.797-10.781-10.797 10.781-1.406-1.406 10.781-10.797-10.781-10.797 1.406-1.406 10.797 10.781 10.797-10.781 1.406 1.406-10.781 10.797z"></path>
        </symbol>
        <symbol id="icon-mail" viewBox="0 0 32 32">
            <path
                d="M32 6v20h-32v-20h32zM2.234 8l13.766 6.891 13.766-6.891h-27.531zM30 24v-13.875l-14 6.984-14-6.984v13.875h28z"></path>
        </symbol>
        <symbol id="icon-chat" viewBox="0 0 32 32">
            <path
                d="M0 2h32v22h-20.578l-7.422 7.422v-7.422h-4v-22zM30 22v-18h-28v18h4v4.578l4.578-4.578h19.422z"></path>
        </symbol>
        <symbol id="icon-mobile" viewBox="0 0 32 32">
            <path
                d="M22.5 1q0.516 0 0.969 0.188t0.797 0.547 0.531 0.797 0.203 0.969v25q0 0.516-0.188 0.969t-0.547 0.797-0.797 0.531-0.969 0.203h-13q-0.516 0-0.969-0.188t-0.797-0.547-0.531-0.797-0.203-0.969v-25q0-0.516 0.188-0.969t0.547-0.797 0.797-0.531 0.969-0.203h13zM18 29v-2h-4v2h4zM23 25v-21h-14v21h14z"></path>
        </symbol>
        <symbol id="icon-phone" viewBox="0 0 32 32">
            <path
                d="M25.109 18.953q0.688 0 1.313 0.25t1.125 0.75l3.438 3.438q0.484 0.484 0.734 1.109t0.266 1.328q0 0.688-0.25 1.313t-0.75 1.125l-0.219 0.219q-0.844 0.844-1.547 1.5t-1.469 1.094-1.703 0.688-2.234 0.234q-1.953 0-4.016-0.609t-4.094-1.688-4-2.563-3.703-3.234-3.219-3.719-2.531-4-1.656-4.078-0.594-3.938q0-1.297 0.219-2.219t0.672-1.688 1.094-1.453 1.5-1.547l0.25-0.25q0.484-0.484 1.109-0.75t1.328-0.266q0.688 0 1.313 0.266t1.125 0.75l3.438 3.438q0.484 0.484 0.734 1.109t0.266 1.328q0 0.688-0.234 1.219t-0.578 0.984-0.75 0.797-0.766 0.703-0.578 0.688-0.234 0.766q0 0.594 0.422 1.016l8.609 8.609q0.422 0.422 1.016 0.422 0.406 0 0.75-0.234t0.703-0.578 0.703-0.75 0.797-0.766 0.969-0.578 1.234-0.234zM23.813 30q1.125 0 1.875-0.203t1.375-0.609 1.188-1 1.328-1.344q0.422-0.422 0.422-1.016 0-0.281-0.219-0.656t-0.594-0.813-0.797-0.859-0.875-0.844-0.797-0.734-0.578-0.547q-0.422-0.422-1.031-0.422-0.406 0-0.75 0.234t-0.688 0.578-0.703 0.75-0.813 0.766-0.969 0.578-1.234 0.234q-0.688 0-1.313-0.25t-1.125-0.75l-8.609-8.609q-0.484-0.484-0.734-1.109t-0.266-1.328q0-0.688 0.234-1.219t0.578-0.984 0.75-0.797 0.766-0.719 0.578-0.688 0.234-0.75q0-0.609-0.422-1.031-0.203-0.203-0.531-0.563t-0.734-0.797-0.844-0.875-0.875-0.813-0.797-0.578-0.672-0.234q-0.594 0-1.016 0.422l-1.328 1.328q-0.578 0.578-1 1.188t-0.625 1.359-0.219 1.875q0 1.75 0.563 3.609t1.578 3.719 2.391 3.656 3 3.422 3.422 2.969 3.656 2.344 3.688 1.547 3.531 0.563z"></path>
        </symbol>
        <symbol id="icon-search" viewBox="0 0 32 32">
            <path
                d="M13.333 3.667c5.339 0 9.667 4.328 9.667 9.667 0 2.309-0.81 4.429-2.161 6.092l6.534 6.535c0.391 0.391 0.391 1.024 0 1.414-0.355 0.355-0.911 0.387-1.302 0.097l-0.112-0.097-6.535-6.534c-1.663 1.351-3.783 2.161-6.092 2.161-5.339 0-9.667-4.328-9.667-9.667s4.328-9.667 9.667-9.667zM13.333 5.667c-4.234 0-7.667 3.432-7.667 7.667s3.432 7.667 7.667 7.667c4.234 0 7.667-3.433 7.667-7.667s-3.433-7.667-7.667-7.667z"></path>
        </symbol>
        <symbol id="icon-download" viewBox="0 0 32 32">
            <path
                d="M18.2498 20.4999C18.664 20.4998 19 20.8355 19 21.2497C19 21.6639 18.6644 21.9998 18.2502 21.9999L5.25022 22.0037C4.836 22.0038 4.5 21.6681 4.5 21.2539C4.5 20.8397 4.83557 20.5038 5.24978 20.5037L18.2498 20.4999ZM11.6482 2.01173L11.75 2.00488C12.1297 2.00488 12.4435 2.28704 12.4932 2.65311L12.5 2.75488L12.499 16.4399L16.2208 12.7196C16.4871 12.4533 16.9038 12.4291 17.1974 12.647L17.2815 12.7197C17.5477 12.986 17.5719 13.4026 17.354 13.6962L17.2814 13.7803L12.2837 18.7769C12.0176 19.043 11.6012 19.0673 11.3076 18.8498L11.2235 18.7772L6.22003 13.7806C5.92694 13.4879 5.92661 13.0131 6.21931 12.72C6.48539 12.4535 6.90204 12.429 7.1958 12.6467L7.27997 12.7192L10.999 16.4329L11 2.75488C11 2.37519 11.2822 2.06139 11.6482 2.01173L11.75 2.00488L11.6482 2.01173Z" />
        </symbol>
        <symbol id="icon-ellipses" viewBox="0 0 32 32">
            <path
                d="M10.667 16c0 1.473-1.194 2.667-2.667 2.667s-2.667-1.194-2.667-2.667c0-1.473 1.194-2.667 2.667-2.667s2.667 1.194 2.667 2.667z"></path>
            <path
                d="M18.667 16c0 1.473-1.194 2.667-2.667 2.667s-2.667-1.194-2.667-2.667c0-1.473 1.194-2.667 2.667-2.667s2.667 1.194 2.667 2.667z"></path>
            <path
                d="M24 18.667c1.473 0 2.667-1.194 2.667-2.667s-1.194-2.667-2.667-2.667c-1.473 0-2.667 1.194-2.667 2.667s1.194 2.667 2.667 2.667z"></path>
        </symbol>
        <symbol id="icon-chevron-left-filled" viewBox="0 0 32 32">
            <path
                d="M20.943 5.724c0.521 0.521 0.521 1.365 0 1.886l-8.391 8.391 8.391 8.391c0.521 0.521 0.521 1.365 0 1.886s-1.365 0.521-1.886 0l-9.333-9.333c-0.521-0.521-0.521-1.365 0-1.886l9.333-9.333c0.521-0.521 1.365-0.521 1.886 0z"></path>
        </symbol>
        <symbol id="icon-chevron-right-filled" viewBox="0 0 32 32">
            <path
                d="M11.057 5.724c-0.521 0.521-0.521 1.365 0 1.886l8.391 8.391-8.391 8.391c-0.521 0.521-0.521 1.365 0 1.886s1.365 0.521 1.886 0l9.333-9.333c0.521-0.521 0.521-1.365 0-1.886l-9.333-9.333c-0.521-0.521-1.365-0.521-1.886 0z"></path>
        </symbol>
        <symbol id="icon-info-filled" viewBox="0 0 32 32" data-icontype="filled">
            <path
                d="M2.286 16c0 7.574 6.141 13.714 13.714 13.714S29.714 23.573 29.714 16 23.573 2.286 16 2.286 2.286 8.427 2.286 16zm15.143-6.857a1.43 1.43 0 0 1-2.858 0 1.43 1.43 0 0 1 2.858 0zM16 12.571c.631 0 1.143.512 1.143 1.143v9.143a1.143 1.143 0 0 1-2.286 0v-9.143c0-.631.512-1.143 1.143-1.143z"></path>
        </symbol>
        <symbol id="icon-warning-filled" viewBox="0 0 32 32" data-icontype="filled">
            <path
                d="M18.752 4.768c-1.194-2.167-4.309-2.167-5.503 0L2.686 23.909c-1.155 2.095.359 4.661 2.752 4.661H26.56c2.392 0 3.909-2.566 2.752-4.661L18.752 4.766zm-1.609 18.089a1.143 1.143 0 0 1-2.286 0 1.143 1.143 0 0 1 2.286 0zm-2-3.714v-7.429a.857.857 0 0 1 1.714 0v7.429a.857.857 0 0 1-1.714 0z"></path>
        </symbol>
        <symbol id="icon-checkmark-circle-filled" viewBox="0 0 32 32" data-icontype="filled">
            <path
                d="M16 2.667c7.364 0 13.333 5.969 13.333 13.333S23.364 29.333 16 29.333 2.667 23.364 2.667 16 8.636 2.667 16 2.667zm5.756 9.077a.83.83 0 0 0-1.112-.059l.002-.001-.068.061-6.744 6.744-2.411-2.411a.833.833 0 0 0-1.237 1.112l-.001-.002.061.068 3 3a.83.83 0 0 0 1.112.059l-.002.001.068-.061 7.333-7.333a.83.83 0 0 0 0-1.178z"></path>
        </symbol>
        <symbol id="icon-play-circle-filled" viewBox="0 0 32 32" data-icontype="filled">
            <path
                d="M16 29.333c7.364 0 13.333-5.969 13.333-13.333S23.364 2.667 16 2.667 2.667 8.636 2.667 16 8.636 29.333 16 29.333zm6.511-14.191a1 1 0 0 1 .005 1.714l-.004.003-8.241 4.925a1.5 1.5 0 0 1-2.269-1.287v-8.993a1.5 1.5 0 0 1 2.269-1.288l8.241 4.925z"></path>
        </symbol>
        <symbol id="icon-play-filled" viewBox="0 0 32 32" data-icontype="filled">
            <path
                d="m11.167 5.608 16.278 8.47a2.169 2.169 0 0 1 .011 3.838l-.012.006-16.278 8.47a2.167 2.167 0 0 1-3.167-1.922V7.529a2.167 2.167 0 0 1 3.047-1.981l-.014-.005.134.065z"></path>
        </symbol>
        <symbol id="icon-cloud-add-regular" viewBox="0 0 32 32" data-icontype="regular">
            <path
                d="M16 3.2c4.507 0 7.064 3.077 7.435 6.794h.112c2.904 0 5.253 2.419 5.253 5.403 0 .152-.006.304-.018.453a9.363 9.363 0 0 0-1.756-1.681L27 14.151c-.496-1.493-1.861-2.557-3.451-2.557h-.114a1.6 1.6 0 0 1-1.591-1.433l-.001-.007C21.52 6.92 19.374 4.8 16 4.8c-3.382 0-5.518 2.106-5.843 5.352a1.601 1.601 0 0 1-1.592 1.442h-.112c-2.01 0-3.653 1.693-3.653 3.803 0 2.112 1.645 3.803 3.651 3.803h4.266a8.69 8.69 0 0 0-.281 1.565l-.003.035H8.451C5.55 20.8 3.2 18.381 3.2 15.397c0-2.885 2.197-5.242 4.963-5.395l.402-.008C8.939 6.253 11.493 3.2 16 3.2zm5.6 25.6a7.2 7.2 0 0 0 0-14.4 7.2 7.2 0 0 0 0 14.4zm0-11.2a.8.8 0 0 1 .8.8v2.4h2.4a.8.8 0 1 1 0 1.6h-2.4v2.4a.8.8 0 1 1-1.6 0v-2.4h-2.4a.8.8 0 1 1 0-1.6h2.4v-2.4a.8.8 0 0 1 .8-.8z"></path>
        </symbol>
        <symbol id="icon-cloud-add-filled" viewBox="0 0 32 32" data-icontype="filled">
            <path
                d="M16 3.2c4.507 0 7.064 3.077 7.435 6.794h.112c2.904 0 5.253 2.419 5.253 5.403 0 .152-.006.304-.018.453a9.2 9.2 0 0 0-16.345 4.915l-.003.035H8.45c-2.901 0-5.251-2.419-5.251-5.403S5.551 9.994 8.45 9.994h.114C8.938 6.253 11.492 3.2 15.999 3.2zm5.6 25.6a7.2 7.2 0 0 0 0-14.4 7.2 7.2 0 0 0 0 14.4zm0-11.2a.8.8 0 0 1 .8.8v2.4h2.4a.8.8 0 1 1 0 1.6h-2.4v2.4a.8.8 0 1 1-1.6 0v-2.4h-2.4a.8.8 0 1 1 0-1.6h2.4v-2.4a.8.8 0 0 1 .8-.8z"></path>
        </symbol>
        <symbol id="icon-info-regular" viewBox="0 0 32 32" data-icontype="regular">
            <path
                d="M17.143 9.143a1.143 1.143 0 0 1-2.286 0 1.143 1.143 0 0 1 2.286 0zm-2 4.286V22a.857.857 0 0 0 1.714 0v-8.571a.857.857 0 0 0-1.714 0zM2.286 16C2.286 8.426 8.427 2.286 16 2.286S29.714 8.427 29.714 16 23.573 29.714 16 29.714 2.286 23.573 2.286 16zM16 4C9.373 4 4 9.373 4 16s5.373 12 12 12 12-5.373 12-12S22.627 4 16 4z"></path>
        </symbol>
        <symbol id="icon-info-filled" viewBox="0 0 32 32" data-icontype="filled">
            <path
                d="M2.286 16c0 7.574 6.141 13.714 13.714 13.714S29.714 23.573 29.714 16 23.573 2.286 16 2.286 2.286 8.427 2.286 16zm15.143-6.857a1.43 1.43 0 0 1-2.858 0 1.43 1.43 0 0 1 2.858 0zM16 12.571c.631 0 1.143.512 1.143 1.143v9.143a1.143 1.143 0 0 1-2.286 0v-9.143c0-.631.512-1.143 1.143-1.143z"></path>
        </symbol>
        <symbol id="icon-question-regular" viewBox="0 0 32 32" data-icontype="regular">
            <path
                d="M16 3.667a6.67 6.67 0 0 0-6.667 6.667.833.833 0 0 0 1.666 0c0-2.76 2.24-5 5-5s5 2.24 5 5c0 1.25-.313 1.96-.734 2.497-.34.433-.737.756-1.232 1.157-.203.165-.421.343-.66.547-.78.669-1.605 1.511-2.22 2.86-.611 1.336-.987 3.108-.987 5.606v.167a.833.833 0 0 0 1.666 0v-.167c0-2.335.353-3.855.836-4.915.479-1.047 1.111-1.705 1.789-2.286.155-.133.324-.27.5-.412.545-.442 1.154-.936 1.619-1.529.673-.86 1.089-1.941 1.089-3.525a6.67 6.67 0 0 0-6.667-6.667zM16 28a1 1 0 0 0 0-2 1 1 0 0 0 0 2z"></path>
        </symbol>
        <symbol id="icon-question-filled" viewBox="0 0 32 32" data-icontype="filled">
            <path
                d="M16 3.333c-3.698 0-6.667 3.007-6.667 6.833a1 1 0 0 0 2 0c0-2.76 2.111-4.833 4.667-4.833s4.667 2.073 4.667 4.833c0 1.224-.297 1.9-.681 2.405-.317.417-.682.722-1.155 1.117-.199.167-.417.348-.659.561-.77.679-1.59 1.541-2.201 2.917-.604 1.362-.971 3.155-.971 5.666v.167a1 1 0 0 0 2 0v-.167c0-2.323.341-3.821.8-4.855.451-1.02 1.048-1.658 1.695-2.229.143-.127.302-.259.469-.398.532-.445 1.148-.958 1.613-1.569.677-.891 1.089-2.007 1.089-3.616 0-3.827-2.969-6.833-6.667-6.833zM16 28a1.167 1.167 0 0 0 0-2.334A1.167 1.167 0 0 0 16 28z"></path>
        </symbol>
        <symbol id="icon-copy-regular" viewBox="0 0 32 32" data-icontype="regular">
            <path
                d="M7.337 6.169 7.333 9v14.005a4.333 4.333 0 0 0 4.333 4.333h11.488a3.008 3.008 0 0 1-2.829 2h-8.659a6.333 6.333 0 0 1-6.333-6.333V9c0-1.307.836-2.42 2.004-2.831zm16.33-3.502a3 3 0 0 1 3 3V23a3 3 0 0 1-3 3h-12a3 3 0 0 1-3-3V5.667a3 3 0 0 1 3-3h12zm0 2h-12a1 1 0 0 0-1 1V23a1 1 0 0 0 1 1h12a1 1 0 0 0 1-1V5.667a1 1 0 0 0-1-1z"></path>
        </symbol>
        <symbol id="icon-copy-filled" viewBox="0 0 32 32" data-icontype="filled">
            <path
                d="M7.337 6.169 7.333 9v14.005a4.333 4.333 0 0 0 4.333 4.333h11.488a3.008 3.008 0 0 1-2.829 2h-8.659a6.333 6.333 0 0 1-6.333-6.333V9c0-1.307.836-2.42 2.004-2.831zm16.33-3.502a3 3 0 0 1 3 3V23a3 3 0 0 1-3 3h-12a3 3 0 0 1-3-3V5.667a3 3 0 0 1 3-3h12z"></path>
        </symbol>
        <symbol id="icon-dismiss-filled" viewBox="0 0 32 32" data-icontype="filled">
            <path
                d="M5.707 4.293a1 1 0 1 0-1.414 1.413l.001.001L14.586 16 4.293 26.293a1 1 0 1 0 1.414 1.414L16 17.414l10.293 10.293a.998.998 0 0 0 1.726-.687.995.995 0 0 0-.313-.726L17.415 16.001 27.708 5.708a1 1 0 0 0-1.414-1.414L16.001 14.587 5.708 4.294z"></path>
        </symbol>
        <symbol id="icon-dismiss-regular" viewBox="0 0 32 32" data-icontype="regular">
            <path
                d="M5.589 4.411a.833.833 0 0 0-1.178 1.178L14.822 16 4.411 26.411a.833.833 0 0 0 1.178 1.178L16 17.178l10.41 10.41a.833.833 0 0 0 1.178-1.178L17.178 16l10.41-10.411a.833.833 0 1 0-1.177-1.178L16 14.821 5.589 4.41z"></path>
        </symbol>
        <symbol id="icon-person-edit-regular" viewBox="0 0 32 32" data-icontype="regular">
            <path
                d="m19.807 20.667 2-2H8.337a3 3 0 0 0-2.999 2.999v.77c0 1.189.427 2.341 1.2 3.247 1.86 2.179 4.589 3.375 8.129 3.609a2.818 2.818 0 0 1 .085-.748l.307-1.232c-3.164-.16-5.477-1.144-7.001-2.928a2.981 2.981 0 0 1-.72-1.948v-.771a1 1 0 0 1 1-.999h11.469zM16 2.673a6.667 6.667 0 0 1 0 13.334 6.667 6.667 0 0 1 0-13.334zm0 2a4.667 4.667 0 0 0 0 9.334 4.667 4.667 0 0 0 0-9.334zm9.467 12.22-7.871 7.869a3.575 3.575 0 0 0-.936 1.638l-.005.025-.611 2.441a1.45 1.45 0 0 0 1.769 1.755l-.01.002 2.44-.609a3.582 3.582 0 0 0 1.664-.943l7.869-7.869a3.048 3.048 0 0 0-4.31-4.308l.001-.001z"></path>
        </symbol>
        <symbol id="icon-person-edit-filled" viewBox="0 0 32 32" data-icontype="filled">
            <path
                d="m16.653 23.82 5.155-5.153H8.336a3 3 0 0 0-2.999 2.999v1.226c0 .763.24 1.507.681 2.128 1.851 2.596 4.76 4.013 8.648 4.272a2.818 2.818 0 0 1 .085-.748l.609-2.44a4.918 4.918 0 0 1 1.293-2.284zM16 2.673a6.667 6.667 0 0 1 0 13.334 6.667 6.667 0 0 1 0-13.334zm9.467 14.22-7.871 7.869a3.575 3.575 0 0 0-.936 1.638l-.005.025-.611 2.441a1.45 1.45 0 0 0 1.769 1.755l-.01.002 2.44-.609a3.582 3.582 0 0 0 1.664-.943l7.869-7.869a3.048 3.048 0 0 0-4.31-4.308l.001-.001z"></path>
        </symbol>
        <symbol id="icon-full-screen-maximize-filled" viewBox="0 0 32 32" data-icontype="filled">
            <path
              d="M6.667 8c0-.736.597-1.333 1.333-1.333h2.667a1.333 1.333 0 0 0 0-2.666H8a4 4 0 0 0-4 4v2.667a1.333 1.333 0 0 0 2.666 0V8.001zm0 16c0 .736.597 1.333 1.333 1.333h2.667a1.333 1.333 0 0 1 0 2.666H8a4 4 0 0 1-4-4v-2.667a1.333 1.333 0 0 1 2.666 0v2.667zM24 6.667c.736 0 1.333.597 1.333 1.333v2.667a1.333 1.333 0 0 0 2.666 0V8a4 4 0 0 0-4-4h-2.667a1.333 1.333 0 0 0 0 2.666h2.667zM25.333 24c0 .736-.597 1.333-1.333 1.333h-2.667a1.333 1.333 0 0 0 0 2.666H24a4 4 0 0 0 4-4v-2.667a1.333 1.333 0 0 0-2.666 0v2.667z"></path>
          </symbol>
          <symbol id="icon-full-screen-minimize-filled" viewBox="0 0 32 32" data-icontype="filled">
            <path
              d="M12 5.333a1.333 1.333 0 0 0-2.666 0v3.333a.667.667 0 0 1-.667.667H5.334a1.333 1.333 0 0 0 0 2.666h3.333A3.333 3.333 0 0 0 12 8.666V5.333zm0 21.334a1.333 1.333 0 0 1-2.666 0v-3.333a.667.667 0 0 0-.667-.667H5.334a1.333 1.333 0 0 1 0-2.666h3.333A3.333 3.333 0 0 1 12 23.334v3.333zM21.333 4C20.597 4 20 4.597 20 5.333v3.333a3.333 3.333 0 0 0 3.333 3.333h3.333a1.333 1.333 0 0 0 0-2.666h-3.333a.667.667 0 0 1-.667-.667V5.333c0-.736-.597-1.333-1.333-1.333zM20 26.667a1.333 1.333 0 0 0 2.666 0v-3.333c0-.368.298-.667.667-.667h3.333a1.333 1.333 0 0 0 0-2.666h-3.333A3.333 3.333 0 0 0 20 23.334v3.333z"></path>
          </symbol>
    </defs>
</svg>