<svg xmlns="http://www.w3.org/2000/svg" aria-hidden="true"
    style="position: absolute; width: 0px; height: 0px; overflow: hidden;">
    <defs>
        <symbol id="icon-link-regular" viewBox="0 0 32 32" data-icontype="regular">
            <path
                d="M22.667 9.333a6.667 6.667 0 0 1 .187 13.331l-.187.003H18.83a.833.833 0 0 1-.085-1.662h.003l.085-.004h3.833a5 5 0 0 0 .171-9.997h-.008l-.162-.003h-3.833a.834.834 0 0 1-.089-1.661h.004l.085-.005h3.833zm-9.5 0h.004a.833.833 0 0 1 .085 1.662h-.004l-.085.004H9.334a5 5 0 0 0-.171 9.997h.008l.162.003h3.833a.834.834 0 0 1 .089 1.661h-.004l-.085.005H9.333a6.667 6.667 0 0 1-.187-13.331l.187-.003h3.833zm-4.5 5.834h14.671a.833.833 0 0 1 .085 1.662h-.003l-.085.004H8.664a.833.833 0 0 1-.085-1.662h.004l.085-.004z"></path>
        </symbol>
        <symbol id="icon-chevron-left-filled" viewBox="0 0 32 32" data-icontype="filled">
            <path
                d="M21.373 5.46a1 1 0 0 1 0 1.414l-8.959 8.96 8.96 8.96a1 1 0 0 1-1.415 1.413l-9.667-9.667a1 1 0 0 1 0-1.414l9.667-9.667a.997.997 0 0 1 1.414 0z"></path>
        </symbol>
        <symbol id="icon-chevron-right-filled" viewBox="0 0 32 32" data-icontype="filled">
            <path
                d="M10.627 26.207a1 1 0 0 1 0-1.414l8.959-8.96-8.96-8.96a1 1 0 0 1 1.415-1.413l9.667 9.667a1 1 0 0 1 0 1.414l-9.667 9.667a.997.997 0 0 1-1.414 0z"></path>
        </symbol>
        <symbol id="icon-chevron-down-filled" viewBox="0 0 32 32" data-icontype="filled">
            <path
                d="M5.627 10.627a1 1 0 0 1 1.414 0l8.96 8.959 8.96-8.96a1 1 0 0 1 1.413 1.415l-9.667 9.667a1 1 0 0 1-1.414 0l-9.667-9.667a.997.997 0 0 1 0-1.414z"></path>
        </symbol>
        <symbol id="icon-chevron-up-filled" viewBox="0 0 32 32" data-icontype="filled">
            <path
                d="M26.373 21.373a1 1 0 0 1-1.414 0l-8.96-8.959-8.96 8.96a1 1 0 0 1-1.413-1.415l9.667-9.667a1 1 0 0 1 1.414 0l9.667 9.667a.997.997 0 0 1 0 1.414z"></path>
        </symbol>
        
        <symbol id="icon-chevron-down-regular" viewBox="0 0 32 32" data-icontype="regular">
            <path
                d="M5.577 10.744a.83.83 0 0 0 0 1.178l9.833 9.833a.83.83 0 0 0 1.178 0l9.833-9.833a.833.833 0 0 0-1.178-1.178l-9.244 9.244-9.244-9.244a.83.83 0 0 0-1.178 0z"></path>
        </symbol>
        <symbol id="icon-chevron-up-regular" viewBox="0 0 32 32" data-icontype="regular">
            <path
                d="M26.423 21.256a.83.83 0 0 1-1.178 0l-9.244-9.244-9.244 9.244a.833.833 0 0 1-1.178-1.178l9.833-9.833a.83.83 0 0 1 1.178 0l9.833 9.833a.83.83 0 0 1 0 1.178z"></path>
        </symbol>
        <symbol id="icon-ios-chevron-right-regular" viewBox="0 0 32 32" data-icontype="regular">
            <path
                d="M20.234 9.366a.801.801 0 0 1 1.132-1.132l7.2 7.2a.798.798 0 0 1 0 1.132l-7.2 7.2a.801.801 0 0 1-1.132-1.132L26.869 16l-6.635-6.634z"></path>
        </symbol>
        <symbol id="icon-chevron-left-regular" viewBox="0 0 32 32" data-icontype="regular">
            <path
                d="M21.256 5.577a.83.83 0 0 1 0 1.178l-9.244 9.244 9.244 9.244a.833.833 0 0 1-1.178 1.178l-9.833-9.833a.83.83 0 0 1 0-1.178l9.833-9.833a.83.83 0 0 1 1.178 0z"></path>
        </symbol>
        <symbol id="icon-chevron-right-regular" viewBox="0 0 32 32" data-icontype="regular">
            <path
                d="M10.744 26.423a.83.83 0 0 1 0-1.178l9.244-9.244-9.244-9.244a.833.833 0 0 1 1.178-1.178l9.833 9.833a.83.83 0 0 1 0 1.178l-9.833 9.833a.83.83 0 0 1-1.178 0z"></path>
        </symbol>
        <symbol id="icon-eye-filled" viewBox="0 0 32 32" data-icontype="filled">
            <path
                d="M27.707 17.42a.836.836 0 0 0 1.052.538l-.006.002a.837.837 0 0 0 .54-1.047l-.001-.002c-.059-.178-3.399-10.245-13.293-10.245-9.893 0-13.233 10.067-13.291 10.245l-.001.002c-.14.44.1.907.54 1.047s.907-.1 1.047-.54c.12-.373 3.007-9.087 11.707-9.087s11.587 8.713 11.707 9.087zM16 24a6 6 0 1 0 0-12 6 6 0 1 0 0 12z"></path>
        </symbol>
        <symbol id="icon-eye-off-filled" viewBox="0 0 32 32" data-icontype="filled">
            <path
                d="M2.96 2.96a.997.997 0 0 0-.095 1.304l-.002-.003.097.112 5.379 5.38c-2.577 1.822-4.457 4.481-5.253 7.574l-.02.092a1 1 0 0 0 1.939.493l.002-.007a11.374 11.374 0 0 1 4.731-6.686l.042-.026 2.413 2.413a5.333 5.333 0 0 0 7.543 7.537l-.002.002 7.892 7.893a1 1 0 0 0 1.509-1.305l.002.003-.097-.112L4.375 2.959a1 1 0 0 0-1.414 0zM16 7.333c-1.333 0-2.627.197-3.852.567l1.649 1.648a11.057 11.057 0 0 1 2.202-.216c5.282 0 9.72 3.612 10.979 8.5l.017.079a1 1 0 0 0 1.938-.49l.001.007c-1.502-5.844-6.722-10.093-12.936-10.093zm.26 4.68 5.068 5.067a5.34 5.34 0 0 0-5.055-5.066l-.013-.001z"></path>
        </symbol>
        <symbol id="icon-pen-regular" viewBox="0 0 32 32" data-icontype="regular">
            <path
                d="M27.983 4.017c-.833-.833-1.984-1.349-3.256-1.349s-2.423.515-3.256 1.349L5.359 20.132a3.994 3.994 0 0 0-1.042 1.811l-.006.028-1.618 6.323a.833.833 0 0 0 1.019 1.013l-.006.001 6.325-1.616a4.017 4.017 0 0 0 1.84-1.049l13.443-13.445.587.626a1.164 1.164 0 0 1-.026 1.623l-2.297 2.297a.833.833 0 0 0 1.178 1.178l2.297-2.297c.513-.513.83-1.221.83-2.003 0-.75-.292-1.433-.768-1.939l-.622-.664 1.489-1.49c.833-.833 1.349-1.984 1.349-3.256s-.515-2.423-1.349-3.256zm-5.334 1.178a2.938 2.938 0 1 1 4.156 4.154L10.692 25.463a2.327 2.327 0 0 1-1.058.608l-.016.004-4.962 1.269 1.269-4.961c.104-.407.315-.777.611-1.073L22.649 5.195z"></path>
        </symbol>
        <symbol id="icon-pen-filled" viewBox="0 0 32 32" data-icontype="filled">
            <path
                d="M21.471 4.017a4.605 4.605 0 1 1 6.513 6.511l-1.49 1.491.623.665a2.82 2.82 0 0 1 .766 1.938c0 .782-.317 1.491-.83 2.003l-2.297 2.297a.833.833 0 0 1-1.178-1.178l2.297-2.297a1.164 1.164 0 0 0 .026-1.623l.001.001-.587-.627-13.443 13.445a3.993 3.993 0 0 1-1.812 1.042l-.028.006-6.324 1.615a.833.833 0 0 1-1.013-1.019l-.001.006 1.618-6.324A4.012 4.012 0 0 1 5.36 20.13L21.472 4.017z"></path>
        </symbol>
        <symbol id="icon-search-regular" viewBox="0 0 32 32" data-icontype="regular">
            <path
                d="M13.333 4a9.333 9.333 0 1 0 0 18.666h.015c2.279 0 4.367-.82 5.983-2.182l-.014.012 7.26 7.26a.833.833 0 0 0 1.178-1.178l-7.26-7.26a9.247 9.247 0 0 0 2.171-5.97v-.014.001a9.333 9.333 0 0 0-9.333-9.333zm-7.666 9.333a7.667 7.667 0 1 1 15.335 0 7.667 7.667 0 0 1-15.335 0z"></path>
        </symbol>
        <symbol id="icon-search-filled" viewBox="0 0 32 32" data-icontype="filled">
            <path
                d="M13.667 4C8.328 4 4 8.328 4 13.667s4.328 9.667 9.667 9.667h.015a9.587 9.587 0 0 0 6.094-2.174l-.017.014 6.534 6.534a1 1 0 1 0 1.414-1.414l-6.534-6.534a9.57 9.57 0 0 0 2.16-6.076v-.017.001a9.667 9.667 0 0 0-9.667-9.667zM6 13.667a7.667 7.667 0 1 1 15.335 0 7.667 7.667 0 0 1-15.335 0z"></path>
        </symbol>
        <symbol id="icon-settings-regular" viewBox="0 0 32 32" data-icontype="regular">
            <path
                d="M16 11a5 5 0 0 0 0 10 5 5 0 0 0 0-10zm-3.333 5a3.333 3.333 0 1 1 6.666 0 3.333 3.333 0 1 1-6.666 0zm.329 12.979a12.973 12.973 0 0 0 6.1-.021l-.089.018c.526-.13.92-.569.982-1.109l.001-.006.225-2.047a1.547 1.547 0 0 1 1.451-1.383h.004c.245-.011.488.035.712.133l1.871.821a1.283 1.283 0 0 0 1.045.004l-.008.003c.165-.07.312-.174.433-.305a13.544 13.544 0 0 0 2.98-5.09l.027-.096a1.293 1.293 0 0 0-.463-1.42l-.003-.002-1.663-1.227a1.552 1.552 0 0 1-.004-2.507l.004-.003 1.657-1.224a1.295 1.295 0 0 0 .464-1.434l.003.009A13.598 13.598 0 0 0 25.708 6.9l.007.008a1.287 1.287 0 0 0-1.469-.297l.008-.003-1.871.824a1.504 1.504 0 0 1-.617.133A1.559 1.559 0 0 1 20.22 6.18l-.001-.007-.227-2.04a1.295 1.295 0 0 0-.991-1.119l-.009-.002a14.052 14.052 0 0 0-2.97-.346h-.009c-1.07.013-2.103.138-3.098.365l.098-.019a1.292 1.292 0 0 0-.999 1.112l-.001.006-.227 2.041a1.563 1.563 0 0 1-.511.991l-.001.001c-.281.24-.645.389-1.044.4h-.002c-.223 0-.434-.048-.625-.133l.01.004-1.867-.824a1.284 1.284 0 0 0-1.466.301l-.001.001a13.532 13.532 0 0 0-2.98 5.087l-.027.096a1.291 1.291 0 0 0 .464 1.422l.003.002 1.659 1.224a1.563 1.563 0 0 1 .463 1.968l.004-.009a1.58 1.58 0 0 1-.463.55l-.004.003-1.66 1.226a1.292 1.292 0 0 0-.464 1.432l-.002-.009A13.596 13.596 0 0 0 6.286 25.1l-.008-.008a1.283 1.283 0 0 0 1.47.299l-.008.003 1.879-.825c.194-.085.403-.129.615-.129h.005a1.56 1.56 0 0 1 1.546 1.375l.001.007.225 2.038c.062.547.458.986.976 1.113l.009.002zm5.376-1.564c-1.56.333-3.173.333-4.733 0l-.203-1.775a3.23 3.23 0 0 0-3.2-2.867h-.02c-.46 0-.897.098-1.291.275l.02-.008-1.631.715a11.871 11.871 0 0 1-2.348-4.014l-.025-.084 1.443-1.067a3.228 3.228 0 0 0 .009-5.188l-.009-.006-1.443-1.067a11.939 11.939 0 0 1 2.384-4.105l-.01.012 1.621.715c.377.171.817.271 1.281.271h.013a3.234 3.234 0 0 0 3.205-2.86l.001-.015.2-1.773c.709-.149 1.528-.24 2.366-.251h.009c.791.01 1.58.093 2.356.25l.2 1.773a3.226 3.226 0 0 0 3.2 2.876l.068.001c.446 0 .869-.101 1.246-.282l-.017.008 1.62-.714a11.858 11.858 0 0 1 2.35 4.01l.025.084-1.438 1.062a3.219 3.219 0 0 0-.009 5.194l.009.006 1.443 1.067a11.948 11.948 0 0 1-2.384 4.105l.011-.012-1.627-.713a3.214 3.214 0 0 0-4.497 2.586l-.001.014-.195 1.777z"></path>
        </symbol>
        <symbol id="icon-settings-filled" viewBox="0 0 32 32" data-icontype="filled">
            <path
                d="M12.996 28.979a12.973 12.973 0 0 0 6.1-.021l-.089.018c.526-.13.92-.569.982-1.109l.001-.006.225-2.047a1.547 1.547 0 0 1 1.451-1.383h.004c.245-.011.488.035.712.133l1.871.821a1.283 1.283 0 0 0 1.045.004l-.008.003c.165-.07.312-.174.433-.305a13.544 13.544 0 0 0 2.98-5.09l.027-.096a1.293 1.293 0 0 0-.463-1.42l-.003-.002-1.663-1.227a1.552 1.552 0 0 1-.004-2.507l.004-.003 1.657-1.224a1.295 1.295 0 0 0 .464-1.434l.003.009A13.598 13.598 0 0 0 25.708 6.9l.007.008a1.287 1.287 0 0 0-1.469-.297l.008-.003-1.871.824a1.504 1.504 0 0 1-.617.133A1.559 1.559 0 0 1 20.22 6.18l-.001-.007-.227-2.04a1.295 1.295 0 0 0-.991-1.119l-.009-.002a14.052 14.052 0 0 0-2.97-.346h-.009c-1.07.013-2.103.138-3.098.365l.098-.019a1.292 1.292 0 0 0-.999 1.112l-.001.006-.227 2.041a1.563 1.563 0 0 1-.511.991l-.001.001c-.281.24-.645.389-1.044.4h-.002c-.223 0-.434-.048-.625-.133l.01.004-1.867-.824a1.284 1.284 0 0 0-1.466.301l-.001.001a13.532 13.532 0 0 0-2.98 5.087l-.027.096a1.291 1.291 0 0 0 .464 1.422l.003.002 1.659 1.224a1.563 1.563 0 0 1 .463 1.968l.004-.009a1.58 1.58 0 0 1-.463.55l-.004.003-1.66 1.226a1.292 1.292 0 0 0-.464 1.432l-.002-.009A13.596 13.596 0 0 0 6.286 25.1l-.008-.008a1.283 1.283 0 0 0 1.47.299l-.008.003 1.879-.825c.194-.085.403-.129.615-.129h.005a1.56 1.56 0 0 1 1.546 1.375l.001.007.225 2.038c.062.547.458.986.976 1.113l.009.002zM16 20.167a4.167 4.167 0 1 1 0-8.334 4.167 4.167 0 1 1 0 8.334z"></path>
        </symbol>
        <symbol id="icon-save-regular" viewBox="0 0 32 32" data-icontype="regular">
            <path
                d="M7.143 5.143a2 2 0 0 0-2 2v17.714a2 2 0 0 0 1.703 1.978l.011.001v-8.265A2.57 2.57 0 0 1 9.428 16h13.143a2.57 2.57 0 0 1 2.571 2.571v8.265a2.003 2.003 0 0 0 1.714-1.979V10.041c0-.531-.21-1.04-.586-1.415l-2.897-2.897a1.994 1.994 0 0 0-1.415-.586h-.245V10a2.57 2.57 0 0 1-2.571 2.571h-7.429A2.57 2.57 0 0 1 9.142 10V5.143h-2zm3.714 0V10c0 .473.384.857.857.857h7.429A.857.857 0 0 0 20 10V5.143h-9.143zm12.572 21.714v-8.286a.857.857 0 0 0-.857-.857H9.429a.857.857 0 0 0-.857.857v8.286h14.857zm-20-19.714a3.714 3.714 0 0 1 3.714-3.714H21.96c1.026 0 1.954.416 2.626 1.088l2.897 2.897a3.715 3.715 0 0 1 1.088 2.627v14.816a3.714 3.714 0 0 1-3.714 3.714H7.143a3.714 3.714 0 0 1-3.714-3.714V7.143z"></path>
        </symbol>
        <symbol id="icon-save-filled" viewBox="0 0 32 32" data-icontype="filled">
            <path
                d="M9.143 3.429h-2a3.714 3.714 0 0 0-3.714 3.714v17.714a3.714 3.714 0 0 0 3.416 3.702l.013.001v-9.989A2.57 2.57 0 0 1 9.429 16h13.143a2.57 2.57 0 0 1 2.571 2.571v9.989a3.718 3.718 0 0 0 3.429-3.703V10.04a3.706 3.706 0 0 0-1.088-2.627l-2.897-2.897a3.704 3.704 0 0 0-2.627-1.088h-.246v6.571a2.57 2.57 0 0 1-2.571 2.571h-7.429a2.57 2.57 0 0 1-2.571-2.571V3.428zm10.857 0h-9.143V10c0 .473.384.857.857.857h7.429A.857.857 0 0 0 20 10V3.429zm3.429 25.142v-10a.857.857 0 0 0-.857-.857H9.429a.857.857 0 0 0-.857.857v10h14.857z"></path>
        </symbol>
        <symbol id="icon-dismiss-filled" viewBox="0 0 32 32" data-icontype="filled">
            <path
                d="M5.707 4.293a1 1 0 1 0-1.414 1.413l.001.001L14.586 16 4.293 26.293a1 1 0 1 0 1.414 1.414L16 17.414l10.293 10.293a.998.998 0 0 0 1.726-.687.995.995 0 0 0-.313-.726L17.415 16.001 27.708 5.708a1 1 0 0 0-1.414-1.414L16.001 14.587 5.708 4.294z"></path>
        </symbol>
        <symbol id="icon-dismiss-regular" viewBox="0 0 32 32" data-icontype="regular">
            <path
                d="M5.589 4.411a.833.833 0 0 0-1.178 1.178L14.822 16 4.411 26.411a.833.833 0 0 0 1.178 1.178L16 17.178l10.41 10.41a.833.833 0 0 0 1.178-1.178L17.178 16l10.41-10.411a.833.833 0 1 0-1.177-1.178L16 14.821 5.589 4.41z"></path>
        </symbol>
        <symbol id="icon-star-regular" viewBox="0 0 32 32" data-icontype="regular">
            <path
                d="M14.535 4.057c.599-1.213 2.33-1.213 2.929 0l3.235 6.555 7.233 1.051c1.34.195 1.875 1.841.905 2.786l-5.233 5.102 1.235 7.204c.229 1.335-1.172 2.352-2.37 1.722l-6.47-3.401-6.47 3.401c-1.198.63-2.599-.387-2.37-1.722l1.236-7.204-5.234-5.102c-.97-.945-.435-2.591.905-2.786l7.233-1.051 3.235-6.555zM16 4.855l-3.213 6.509a1.64 1.64 0 0 1-1.22.892l-.009.001-7.184 1.045 5.199 5.067a1.63 1.63 0 0 1 .468 1.456l.001-.01-1.227 7.155 6.425-3.378c.22-.118.482-.188.76-.188s.54.069.769.192l-.009-.004 6.425 3.378-1.227-7.155a1.63 1.63 0 0 1 .469-1.446l5.199-5.067-7.184-1.044a1.64 1.64 0 0 1-1.226-.884l-.004-.009-3.213-6.511z"></path>
        </symbol>
        <symbol id="icon-star-filled" viewBox="0 0 32 32" data-icontype="filled">
            <path
                d="M14.535 4.057c.599-1.213 2.33-1.213 2.929 0l3.235 6.555 7.233 1.051c1.34.195 1.875 1.841.905 2.786l-5.233 5.102 1.235 7.204c.229 1.335-1.172 2.352-2.37 1.722l-6.47-3.401-6.47 3.401c-1.198.63-2.599-.387-2.37-1.722l1.236-7.204-5.234-5.102c-.97-.945-.435-2.591.905-2.786l7.233-1.051 3.235-6.555z"></path>
        </symbol>
        <symbol id="icon-burger-regular" viewBox="0 0 32 32" data-icontype="filled">
            <path class="cls-2"
                d="M4.43,5.63H38.09V8H4.43Zm0,12v-2.4H38.09v2.4Zm0,9.62v-2.4H38.09v2.4Zm0,9.62v-2.4H38.09v2.4Z" />
        </symbol>
        <symbol id="icon-full-screen-maximize-filled" viewBox="0 0 32 32" data-icontype="filled">
            <path
                d="M6.667 8c0-.736.597-1.333 1.333-1.333h2.667a1.333 1.333 0 0 0 0-2.666H8a4 4 0 0 0-4 4v2.667a1.333 1.333 0 0 0 2.666 0V8.001zm0 16c0 .736.597 1.333 1.333 1.333h2.667a1.333 1.333 0 0 1 0 2.666H8a4 4 0 0 1-4-4v-2.667a1.333 1.333 0 0 1 2.666 0v2.667zM24 6.667c.736 0 1.333.597 1.333 1.333v2.667a1.333 1.333 0 0 0 2.666 0V8a4 4 0 0 0-4-4h-2.667a1.333 1.333 0 0 0 0 2.666h2.667zM25.333 24c0 .736-.597 1.333-1.333 1.333h-2.667a1.333 1.333 0 0 0 0 2.666H24a4 4 0 0 0 4-4v-2.667a1.333 1.333 0 0 0-2.666 0v2.667z"></path>
        </symbol>
        <symbol id="icon-full-screen-minimize-filled" viewBox="0 0 32 32" data-icontype="filled">
            <path
                d="M12 5.333a1.333 1.333 0 0 0-2.666 0v3.333a.667.667 0 0 1-.667.667H5.334a1.333 1.333 0 0 0 0 2.666h3.333A3.333 3.333 0 0 0 12 8.666V5.333zm0 21.334a1.333 1.333 0 0 1-2.666 0v-3.333a.667.667 0 0 0-.667-.667H5.334a1.333 1.333 0 0 1 0-2.666h3.333A3.333 3.333 0 0 1 12 23.334v3.333zM21.333 4C20.597 4 20 4.597 20 5.333v3.333a3.333 3.333 0 0 0 3.333 3.333h3.333a1.333 1.333 0 0 0 0-2.666h-3.333a.667.667 0 0 1-.667-.667V5.333c0-.736-.597-1.333-1.333-1.333zM20 26.667a1.333 1.333 0 0 0 2.666 0v-3.333c0-.368.298-.667.667-.667h3.333a1.333 1.333 0 0 0 0-2.666h-3.333A3.333 3.333 0 0 0 20 23.334v3.333z"></path>
        </symbol>
        <symbol id="icon-add-regular" viewBox="0 0 32 32" data-icontype="regular">
            <path
                d="M16.571 14.857V4.29a.857.857 0 0 0-1.714 0v10.567H4.29a.857.857 0 0 0 0 1.714h10.567v10.575a.857.857 0 0 0 1.714 0V16.571l10.571.003a.857.857 0 0 0 0-1.714l-10.571-.003z"></path>
        </symbol>
        <symbol id="icon-add-filled" viewBox="0 0 32 32" data-icontype="filled">
            <path
                d="M27.429 14.857H17.143V4.571a1.143 1.143 0 0 0-2.286 0v10.286H4.571a1.143 1.143 0 0 0 0 2.286h10.286v10.286a1.143 1.143 0 0 0 2.286 0V17.143h10.286a1.143 1.143 0 0 0 0-2.286z"></path>
        </symbol>
        <symbol id="icon-chat-help-regular" viewBox="0 0 32 32" data-icontype="regular">
            <path
                d="M16 2.667c7.364 0 13.333 5.969 13.333 13.333S23.364 29.333 16 29.333h-.018a13.21 13.21 0 0 1-6.17-1.518l.073.035-5.101 1.423a1.667 1.667 0 0 1-2.051-2.066l-.003.012 1.424-5.097c-.937-1.773-1.487-3.875-1.487-6.105v-.018V16C2.667 8.636 8.636 2.667 16 2.667zm0 2C9.741 4.667 4.667 9.741 4.667 16c0 1.96.497 3.844 1.431 5.516l.2.36-1.483 5.312 5.316-1.483.36.2a11.203 11.203 0 0 0 5.507 1.428c6.259 0 11.333-5.074 11.333-11.333S22.258 4.668 16 4.667zm0 16a1.333 1.333 0 0 1 0 2.666 1.333 1.333 0 0 1 0-2.666zM16 9a3.667 3.667 0 0 1 3.667 3.667c0 1.347-.396 2.099-1.401 3.145l-.225.228c-.829.829-1.04 1.181-1.04 1.96a1 1 0 0 1-2 0c0-1.347.396-2.099 1.401-3.145l.225-.228c.829-.829 1.04-1.181 1.04-1.96a1.667 1.667 0 0 0-3.324-.178l-.001.007-.009.171a1 1 0 0 1-2 0A3.667 3.667 0 0 1 16 9z"></path>
        </symbol>
        <symbol id="icon-chat-help-filled" viewBox="0 0 32 32" data-icontype="filled">
            <path
                d="M16 2.667c7.364 0 13.333 5.969 13.333 13.333S23.364 29.333 16 29.333h-.018c-2.258 0-4.384-.563-6.246-1.558l.071.035-5.72 1.489a1.133 1.133 0 0 1-1.381-1.389l-.002.008 1.488-5.719c-.962-1.792-1.527-3.921-1.527-6.182v-.019.001c0-7.364 5.969-13.333 13.333-13.333zm0 18a1.333 1.333 0 0 0 0 2.666 1.333 1.333 0 0 0 0-2.666zM16 9a3.667 3.667 0 0 0-3.667 3.667 1 1 0 0 0 1.99.142l.001-.005.019-.307a1.667 1.667 0 0 1 3.324.17c0 .719-.18 1.073-.86 1.776l-.405.413c-1.005 1.045-1.401 1.796-1.401 3.144a1 1 0 0 0 2 0c0-.719.18-1.073.86-1.776l.405-.413c1.005-1.045 1.401-1.796 1.401-3.144A3.667 3.667 0 0 0 16 9z"></path>
        </symbol>
    </defs>
</svg>