<svg xmlns="http://www.w3.org/2000/svg" viewBox="0 0 44.63 42.52"><title>hide</title><g id="Layer_2" data-name="Layer 2"><g id="Layer_1-2" data-name="Layer 1"><path d="M35.44,11.07,43.53,3l-3-3L31.47,9.07A24.9,24.9,0,0,0,1.74,18.22a23.4,23.4,0,0,0-1.74,3,22.11,22.11,0,0,0,1.74,3,24.91,24.91,0,0,0,7.45,7.15L1,39.54l3,3,9.17-9.17a24.62,24.62,0,0,0,9.15,1.74A24.85,24.85,0,0,0,42.89,24.2a22.11,22.11,0,0,0,1.74-3,23.4,23.4,0,0,0-1.74-3A24.91,24.91,0,0,0,35.44,11.07ZM11.76,28.78a21,21,0,0,1-7.48-7.57,20.8,20.8,0,0,1,24.47-9.42l-2.06,2.06A8.33,8.33,0,0,0,15.22,25.32Zm10.55,2.88a20.76,20.76,0,0,1-6.43-1l2.4-2.39a8.2,8.2,0,0,0,4,1.05A8.36,8.36,0,0,0,30.66,21a8.21,8.21,0,0,0-1.05-4l3.26-3.27a20.8,20.8,0,0,1,7.48,7.57A20.73,20.73,0,0,1,22.31,31.66Z"/></g></g></svg>