<svg xmlns="http://www.w3.org/2000/svg" viewBox="0 0 42.52 42.52"><defs><style>.cls-1{fill:none;}.cls-2{fill:#1d1d1b;}</style></defs><title>add-image</title><g id="Layer_2" data-name="Layer 2"><g id="Layer_1-2" data-name="Layer 1"><rect class="cls-1" width="42.52" height="42.52"/><path class="cls-2" d="M19.14,23.92l7.43,7.41v1.89H0V4H37.21v18.6H34.55V6.64H2.66v8.74l4-4L17.27,22.05l5.32-5.32L31.89,26V27.9H30l-7.41-7.43ZM6.64,15.16l-4,4v11.4H22Zm22.59-4.53A1.37,1.37,0,0,1,30.56,9.3a1.33,1.33,0,0,1,0,2.66,1.37,1.37,0,0,1-1.33-1.33ZM42.52,30.56v2.66H37.21v5.31H34.55V33.22H29.23V30.56h5.32V25.25h2.66v5.31Z"/></g></g></svg>