<svg xmlns="http://www.w3.org/2000/svg" viewBox="0 0 42.52 42.52"><defs><style>.cls-1{fill:none;}.cls-2{fill:#1d1d1b;}</style></defs><title>gear</title><g id="Layer_2" data-name="Layer 2"><g id="Layer_1-2" data-name="Layer 1"><rect class="cls-1" width="42.52" height="42.52"/><path class="cls-2" d="M37.11,20.51c0,.12,0,.25,0,.37s0,.25,0,.38,0,.25,0,.38,0,.25,0,.37l5.41,3.36-3.32,8L33,32Q32.49,32.49,32,33l1.42,6.2-8,3.32L22,37.11h-1.5l-3.36,5.41-8-3.32L10.57,33Q10,32.49,9.52,32l-6.2,1.42L0,25.37,5.41,22c0-.12,0-.25,0-.37s0-.25,0-.38,0-.25,0-.38,0-.25,0-.37L0,17.15l3.32-8,6.2,1.42Q10,10,10.57,9.52L9.15,3.32l8-3.32,3.36,5.41H22L25.37,0l8,3.32L32,9.52q.54.51,1.05,1.05l6.2-1.42,3.32,8Zm-2.44,2.71c0-.33,0-.66.08-1s0-.66,0-1,0-.65,0-1,0-.66-.08-1l4.93-3.07-1.8-4.35-5.66,1.32a15.72,15.72,0,0,0-1.33-1.46c-.45-.45-.94-.9-1.47-1.34l1.32-5.66-4.35-1.8L23.22,7.85l-1-.08c-.33,0-.66,0-1,0s-.67,0-1,0l-1,.08L16.21,2.92l-4.35,1.8,1.32,5.66a15.72,15.72,0,0,0-1.46,1.33c-.45.45-.9.94-1.34,1.47L4.72,11.86l-1.8,4.35L7.85,19.3c0,.33,0,.66-.08,1s0,.66,0,1,0,.65,0,1,.05.66.08,1L2.92,26.31l1.8,4.35,5.66-1.32a15.72,15.72,0,0,0,1.33,1.46c.45.45.94.89,1.47,1.34L11.86,37.8l4.35,1.8,3.09-4.93,1,.08c.33,0,.66,0,1,0s.66,0,1,0l1-.08,3.07,4.93,4.35-1.8-1.32-5.66a15.72,15.72,0,0,0,1.46-1.33c.45-.45.89-.94,1.34-1.47l5.66,1.32,1.8-4.35ZM21.26,13.41a7.64,7.64,0,0,1,3.06.61A7.82,7.82,0,0,1,28.5,18.2a8,8,0,0,1,0,6.12,7.82,7.82,0,0,1-4.18,4.18,8,8,0,0,1-6.12,0A7.82,7.82,0,0,1,14,24.32a8,8,0,0,1,0-6.12A7.82,7.82,0,0,1,18.2,14,7.64,7.64,0,0,1,21.26,13.41Zm0,13.36a5.33,5.33,0,0,0,2.15-.43,5.35,5.35,0,0,0,2.93-2.93,5.59,5.59,0,0,0,0-4.3,5.53,5.53,0,0,0-1.17-1.76,5.73,5.73,0,0,0-1.76-1.18,5.71,5.71,0,0,0-4.3,0,5.47,5.47,0,0,0-2.94,2.94,5.71,5.71,0,0,0,0,4.3,5.73,5.73,0,0,0,1.18,1.76,5.53,5.53,0,0,0,1.76,1.17A5.33,5.33,0,0,0,21.26,26.77Z"/></g></g></svg>