<svg xmlns="http://www.w3.org/2000/svg" viewBox="0 0 42.52 42.52"><defs><style>.cls-1{fill:none;}.cls-2{fill:#1d1d1b;}</style></defs><title>link</title><g id="Layer_2" data-name="Layer 2"><g id="Layer_1-2" data-name="Layer 1"><rect class="cls-1" width="42.52" height="42.52"/><path class="cls-2" d="M18.6,26.57V23.92a12,12,0,0,0,3-.37,7.43,7.43,0,0,0,2.55-1.16,5.91,5.91,0,0,0,1.75-2.05,6.54,6.54,0,0,0,.65-3.07,6.35,6.35,0,0,0-.52-2.57,7.05,7.05,0,0,0-1.44-2.11,6.8,6.8,0,0,0-2.1-1.43,6.44,6.44,0,0,0-2.58-.53H9.3a6.36,6.36,0,0,0-2.57.53,6.73,6.73,0,0,0-2.11,1.43A6.85,6.85,0,0,0,3.19,14.7a6.19,6.19,0,0,0-.53,2.57,6.67,6.67,0,0,0,.65,3.07,5.83,5.83,0,0,0,1.76,2.05,7.3,7.3,0,0,0,2.54,1.16,12,12,0,0,0,3,.37v2.65H9.3a9,9,0,0,1-3.62-.73A9.42,9.42,0,0,1,.74,20.9a9.25,9.25,0,0,1,0-7.25,9.42,9.42,0,0,1,2-3,9.59,9.59,0,0,1,2.95-2A9,9,0,0,1,9.3,8H19.93a9,9,0,0,1,3.62.74,9.39,9.39,0,0,1,4.95,4.94,9.37,9.37,0,0,1,0,7.25,9.57,9.57,0,0,1-2,2.94,9.44,9.44,0,0,1-2.95,2,8.94,8.94,0,0,1-3.62.73ZM31.89,15.94V18.6a12,12,0,0,1,3,.37,7.3,7.3,0,0,1,2.54,1.16,5.83,5.83,0,0,1,1.76,2.05,6.67,6.67,0,0,1,.65,3.07,6.19,6.19,0,0,1-.53,2.57,6.85,6.85,0,0,1-1.43,2.11,6.73,6.73,0,0,1-2.11,1.43,6.36,6.36,0,0,1-2.57.53H22.59A6.44,6.44,0,0,1,20,31.36a6.8,6.8,0,0,1-2.1-1.43,6.87,6.87,0,0,1-1.44-2.11,6.36,6.36,0,0,1-.53-2.57,6.54,6.54,0,0,1,.66-3.07,5.8,5.8,0,0,1,1.75-2.05A7.35,7.35,0,0,1,20.9,19a12,12,0,0,1,3-.37V15.94H22.59a9,9,0,0,0-3.62.74,9.33,9.33,0,0,0-2.95,2,9.57,9.57,0,0,0-2,2.94,9.37,9.37,0,0,0,0,7.25,9.62,9.62,0,0,0,2,2.95,9.47,9.47,0,0,0,2.95,2,9,9,0,0,0,3.62.74H33.22a9,9,0,0,0,3.62-.74,9.59,9.59,0,0,0,2.95-2,9.42,9.42,0,0,0,2-2.95,9.25,9.25,0,0,0,0-7.25,9.42,9.42,0,0,0-4.94-4.94,9,9,0,0,0-3.62-.74Z"/></g></g></svg>