<svg xmlns="http://www.w3.org/2000/svg" viewBox="0 0 42.52 42.52"><defs><style>.cls-1{fill:none;}.cls-2{fill:#1d1d1b;}</style></defs><title>search</title><g id="Layer_2" data-name="Layer 2"><g id="Layer_1-2" data-name="Layer 1"><rect class="cls-1" width="42.52" height="42.52"/><path class="cls-2" d="M42.52,41.07a1.59,1.59,0,0,1-.35,1,1.2,1.2,0,0,1-1,.44,1.27,1.27,0,0,1-.93-.39L24,25.85a15,15,0,0,1-4.37,2.51,14.71,14.71,0,0,1-8.86.35,14.11,14.11,0,0,1-3.48-1.47A14.59,14.59,0,0,1,.52,18.5a14.77,14.77,0,0,1,0-7.77A14.46,14.46,0,0,1,4.29,4.29a14.61,14.61,0,0,1,3-2.3A14.92,14.92,0,0,1,10.73.52a14.77,14.77,0,0,1,7.77,0A15,15,0,0,1,22,2a15.14,15.14,0,0,1,5.25,5.26,14.11,14.11,0,0,1,1.47,3.48,14.71,14.71,0,0,1-.35,8.86A15,15,0,0,1,25.85,24L27,25.14l2.12,2.08,2.7,2.65c1,1,2,1.93,3,2.92s1.94,2,2.87,2.9,1.75,1.79,2.47,2.55,1.3,1.4,1.73,1.9A3.09,3.09,0,0,1,42.52,41.07Zm-27.9-14.5a11.61,11.61,0,0,0,4.65-.94,12,12,0,0,0,6.36-6.36,11.61,11.61,0,0,0,.94-4.65A11.54,11.54,0,0,0,25.63,10a12.06,12.06,0,0,0-2.56-3.8,12.2,12.2,0,0,0-3.8-2.57,11.61,11.61,0,0,0-4.65-.94A11.54,11.54,0,0,0,10,3.6,12.1,12.1,0,0,0,3.6,10a11.54,11.54,0,0,0-.94,4.65,11.61,11.61,0,0,0,.94,4.65,12.2,12.2,0,0,0,2.57,3.8A12.06,12.06,0,0,0,10,25.63,11.54,11.54,0,0,0,14.62,26.57Z"/></g></g></svg>