<svg xmlns="http://www.w3.org/2000/svg" viewBox="0 0 42.52 42.52"><defs><style>.cls-1{fill:none;}.cls-2{fill:#010101;}</style></defs><title>show</title><g id="Layer_2" data-name="Layer 2"><g id="Layer_1-2" data-name="Layer 1"><rect class="cls-1" width="42.52" height="42.52"/><path class="cls-2" d="M29.16,21a7.9,7.9,0,1,1-7.9-7.9A7.92,7.92,0,0,1,29.16,21Zm13.22.25a21.36,21.36,0,0,1-1.64,2.83,23.56,23.56,0,0,1-39,0A21.36,21.36,0,0,1,.14,21.26a21.36,21.36,0,0,1,1.64-2.83,23.56,23.56,0,0,1,39,0A21.36,21.36,0,0,1,42.38,21.26Zm-4.05,0a19.68,19.68,0,0,0-34.14,0,19.68,19.68,0,0,0,34.14,0Z"/></g></g></svg>